<svg width="32" height="32" viewBox="0 0 32 32" fill="none" xmlns="http://www.w3.org/2000/svg">
    <style>
        .favicon-dot { 
            fill: #4A9B3A; 
        }
        @media (prefers-color-scheme: dark) {
            .favicon-dot { 
                fill: #4A9B3A; 
            }
        }
        @media (prefers-color-scheme: light) {
            .favicon-dot { 
                fill: #2D5A27; 
            }
        }
    </style>
    <!-- MoreLinX favicon - circular dotted pattern -->
    <g transform="translate(16, 16)">
        <!-- Outer ring of dots -->
        <circle cx="0" cy="-12" r="1.5" class="favicon-dot"/>
        <circle cx="8.5" cy="-8.5" r="1.5" class="favicon-dot"/>
        <circle cx="12" cy="0" r="1.5" class="favicon-dot"/>
        <circle cx="8.5" cy="8.5" r="1.5" class="favicon-dot"/>
        <circle cx="0" cy="12" r="1.5" class="favicon-dot"/>
        <circle cx="-8.5" cy="8.5" r="1.5" class="favicon-dot"/>
        <circle cx="-12" cy="0" r="1.5" class="favicon-dot"/>
        <circle cx="-8.5" cy="-8.5" r="1.5" class="favicon-dot"/>
        
        <!-- Middle ring of dots -->
        <circle cx="0" cy="-7" r="1" class="favicon-dot"/>
        <circle cx="5" cy="-5" r="1" class="favicon-dot"/>
        <circle cx="7" cy="0" r="1" class="favicon-dot"/>
        <circle cx="5" cy="5" r="1" class="favicon-dot"/>
        <circle cx="0" cy="7" r="1" class="favicon-dot"/>
        <circle cx="-5" cy="5" r="1" class="favicon-dot"/>
        <circle cx="-7" cy="0" r="1" class="favicon-dot"/>
        <circle cx="-5" cy="-5" r="1" class="favicon-dot"/>
        
        <!-- Inner ring of dots -->
        <circle cx="0" cy="-3" r="0.8" class="favicon-dot"/>
        <circle cx="2.1" cy="-2.1" r="0.8" class="favicon-dot"/>
        <circle cx="3" cy="0" r="0.8" class="favicon-dot"/>
        <circle cx="2.1" cy="2.1" r="0.8" class="favicon-dot"/>
        <circle cx="0" cy="3" r="0.8" class="favicon-dot"/>
        <circle cx="-2.1" cy="2.1" r="0.8" class="favicon-dot"/>
        <circle cx="-3" cy="0" r="0.8" class="favicon-dot"/>
        <circle cx="-2.1" cy="-2.1" r="0.8" class="favicon-dot"/>
    </g>
</svg>
