<svg version="1.2" xmlns="http://www.w3.org/2000/svg" viewBox="0 0 460 80" width="460" height="80">
	<style>
		tspan { white-space:pre } 
		.t0 { font-size: 50px;fill: #4a9b3a;font-family: "' Arial'" } 
		.s1 { fill: #4a9b3a } 
		.t2 { font-size: 12px;fill: #333333;font-family: "' Arial'" } 
	</style>
	<text id="M" style="transform: matrix(1,0,0,1,56,59)" >
		<tspan x="0" y="0" class="t0">M
</tspan>
	</text>
	<g>
		<path fill-rule="evenodd" class="s1" d="m133 31c-1.11 0-2-0.89-2-2 0-1.11 0.89-2 2-2 1.11 0 2 0.89 2 2 0 1.11-0.89 2-2 2z"/>
		<path fill-rule="evenodd" class="s1" d="m143.6 35.4c-1.11 0-2-0.89-2-2 0-1.11 0.89-2 2-2 1.11 0 2 0.89 2 2 0 1.11-0.89 2-2 2z"/>
		<path fill-rule="evenodd" class="s1" d="m148 46c-1.11 0-2-0.89-2-2 0-1.11 0.89-2 2-2 1.11 0 2 0.89 2 2 0 1.11-0.89 2-2 2z"/>
		<path fill-rule="evenodd" class="s1" d="m143.6 56.6c-1.11 0-2-0.89-2-2 0-1.11 0.89-2 2-2 1.11 0 2 0.89 2 2 0 1.11-0.89 2-2 2z"/>
		<path fill-rule="evenodd" class="s1" d="m133 61c-1.11 0-2-0.89-2-2 0-1.11 0.89-2 2-2 1.11 0 2 0.89 2 2 0 1.11-0.89 2-2 2z"/>
		<path fill-rule="evenodd" class="s1" d="m122.4 56.6c-1.11 0-2-0.89-2-2 0-1.11 0.89-2 2-2 1.11 0 2 0.89 2 2 0 1.11-0.89 2-2 2z"/>
		<path fill-rule="evenodd" class="s1" d="m118 46c-1.11 0-2-0.89-2-2 0-1.11 0.89-2 2-2 1.11 0 2 0.89 2 2 0 1.11-0.89 2-2 2z"/>
		<path fill-rule="evenodd" class="s1" d="m122.4 35.4c-1.11 0-2-0.89-2-2 0-1.11 0.89-2 2-2 1.11 0 2 0.89 2 2 0 1.11-0.89 2-2 2z"/>
		<path fill-rule="evenodd" class="s1" d="m140.5 38c-0.83 0-1.5-0.67-1.5-1.5 0-0.83 0.67-1.5 1.5-1.5 0.83 0 1.5 0.67 1.5 1.5 0 0.83-0.67 1.5-1.5 1.5z"/>
		<path fill-rule="evenodd" class="s1" d="m140.5 53c-0.83 0-1.5-0.67-1.5-1.5 0-0.83 0.67-1.5 1.5-1.5 0.83 0 1.5 0.67 1.5 1.5 0 0.83-0.67 1.5-1.5 1.5z"/>
		<path fill-rule="evenodd" class="s1" d="m125.5 53c-0.83 0-1.5-0.67-1.5-1.5 0-0.83 0.67-1.5 1.5-1.5 0.83 0 1.5 0.67 1.5 1.5 0 0.83-0.67 1.5-1.5 1.5z"/>
		<path fill-rule="evenodd" class="s1" d="m125.5 38c-0.83 0-1.5-0.67-1.5-1.5 0-0.83 0.67-1.5 1.5-1.5 0.83 0 1.5 0.67 1.5 1.5 0 0.83-0.67 1.5-1.5 1.5z"/>
		<path fill-rule="evenodd" class="s1" d="m133 35c-0.83 0-1.5-0.67-1.5-1.5 0-0.83 0.67-1.5 1.5-1.5 0.83 0 1.5 0.67 1.5 1.5 0 0.83-0.67 1.5-1.5 1.5z"/>
		<path fill-rule="evenodd" class="s1" d="m143.5 45.5c-0.83 0-1.5-0.67-1.5-1.5 0-0.83 0.67-1.5 1.5-1.5 0.83 0 1.5 0.67 1.5 1.5 0 0.83-0.67 1.5-1.5 1.5z"/>
		<path fill-rule="evenodd" class="s1" d="m133 56c-0.83 0-1.5-0.67-1.5-1.5 0-0.83 0.67-1.5 1.5-1.5 0.83 0 1.5 0.67 1.5 1.5 0 0.83-0.67 1.5-1.5 1.5z"/>
		<path fill-rule="evenodd" class="s1" d="m122.5 45.5c-0.83 0-1.5-0.67-1.5-1.5 0-0.83 0.67-1.5 1.5-1.5 0.83 0 1.5 0.67 1.5 1.5 0 0.83-0.67 1.5-1.5 1.5z"/>
		<path fill-rule="evenodd" class="s1" d="m133 39c-0.55 0-1-0.45-1-1 0-0.55 0.45-1 1-1 0.55 0 1 0.45 1 1 0 0.55-0.45 1-1 1z"/>
		<path fill-rule="evenodd" class="s1" d="m137.2 40.8c-0.55 0-1-0.45-1-1 0-0.55 0.45-1 1-1 0.55 0 1 0.45 1 1 0 0.55-0.45 1-1 1z"/>
		<path fill-rule="evenodd" class="s1" d="m139 45c-0.55 0-1-0.45-1-1 0-0.55 0.45-1 1-1 0.55 0 1 0.45 1 1 0 0.55-0.45 1-1 1z"/>
		<path fill-rule="evenodd" class="s1" d="m137.2 49.2c-0.55 0-1-0.45-1-1 0-0.55 0.45-1 1-1 0.55 0 1 0.45 1 1 0 0.55-0.45 1-1 1z"/>
		<path fill-rule="evenodd" class="s1" d="m133 51c-0.55 0-1-0.45-1-1 0-0.55 0.45-1 1-1 0.55 0 1 0.45 1 1 0 0.55-0.45 1-1 1z"/>
		<path fill-rule="evenodd" class="s1" d="m128.8 49.2c-0.55 0-1-0.45-1-1 0-0.55 0.45-1 1-1 0.55 0 1 0.45 1 1 0 0.55-0.45 1-1 1z"/>
		<path fill-rule="evenodd" class="s1" d="m127 45c-0.55 0-1-0.45-1-1 0-0.55 0.45-1 1-1 0.55 0 1 0.45 1 1 0 0.55-0.45 1-1 1z"/>
		<path fill-rule="evenodd" class="s1" d="m128.8 40.8c-0.55 0-1-0.45-1-1 0-0.55 0.45-1 1-1 0.55 0 1 0.45 1 1 0 0.55-0.45 1-1 1z"/>
	</g>
	<text id="r" style="transform: matrix(1,0,0,1,171,59)" >
		<tspan x="0" y="0" class="t0">r
</tspan>
	</text>
	<text id="e" style="transform: matrix(1,0,0,1,201,59)" >
		<tspan x="0" y="0" class="t0">e
</tspan>
	</text>
	<text id="L" style="transform: matrix(1,0,0,1,241,59)" >
		<tspan x="0" y="0" class="t0">L
</tspan>
	</text>
	<text id="i" style="transform: matrix(1,0,0,1,281,59)" >
		<tspan x="0" y="0" class="t0">i
</tspan>
	</text>
	<text id="n" style="transform: matrix(1,0,0,1,301,59)" >
		<tspan x="0" y="0" class="t0">n
</tspan>
	</text>
	<text id="X" style="transform: matrix(1,0,0,1,346,59)" >
		<tspan x="0" y="0" class="t0">X
</tspan>
	</text>
	<text id="TM" style="transform: matrix(1,0,0,1,406,24)" >
		<tspan x="0" y="0" class="t2">TM
</tspan>
	</text>
</svg>